<?xml version="1.0" standalone="no"?>
<!DOCTYPE svg PUBLIC "-//W3C//DTD SVG 20010904//EN"
 "http://www.w3.org/TR/2001/REC-SVG-20010904/DTD/svg10.dtd">
<svg version="1.0" xmlns="http://www.w3.org/2000/svg"
 width="512.000000pt" height="512.000000pt" viewBox="0 0 512.000000 512.000000"
 preserveAspectRatio="xMidYMid meet">
<metadata>
Created by potrace 1.14, written by Peter Selinger 2001-2017
</metadata>
<g transform="translate(0.000000,512.000000) scale(0.100000,-0.100000)"
fill="#000000" stroke="none">
<path d="M3942 3877 c-32 -70 -80 -117 -119 -117 -15 0 -34 -7 -44 -16 -13
-12 -47 -17 -141 -20 -173 -7 -185 -9 -203 -44 l-16 -30 -712 0 c-701 0 -712
0 -725 20 -12 19 -23 20 -313 20 l-302 0 -73 -70 -74 -70 -59 0 c-64 0 -73 -6
-78 -55 -6 -55 -6 -55 -111 -55 l-98 0 -177 -178 c-142 -143 -177 -184 -177
-205 0 -23 -6 -29 -30 -34 l-30 -6 2 -186 c3 -175 4 -186 22 -189 11 -3 29
-15 39 -29 l19 -24 227 3 c222 3 227 3 261 28 88 63 198 -11 150 -101 -15 -27
-61 -48 -92 -42 -22 4 -30 -1 -52 -33 -31 -45 -32 -59 -8 -73 16 -9 16 -12 -3
-48 -17 -31 -26 -37 -46 -35 -15 1 -31 -3 -36 -10 -16 -20 -233 -454 -233
-466 0 -6 23 -24 51 -41 43 -27 49 -35 43 -54 -18 -53 -13 -58 96 -113 58 -29
114 -53 125 -53 10 -1 29 11 40 25 l21 27 81 -27 c44 -15 87 -24 95 -21 14 6
48 65 48 85 0 6 -13 28 -29 50 -37 51 -46 99 -27 144 9 21 12 50 9 74 -9 64
13 135 52 171 29 26 33 35 28 64 -4 28 1 39 42 85 l47 52 182 -2 181 -3 3 -80
c3 -105 8 -125 32 -125 10 0 21 -4 25 -10 3 -5 10 -71 15 -147 14 -189 34
-308 66 -379 14 -32 61 -118 105 -190 43 -73 79 -138 79 -145 0 -7 -9 -22 -20
-34 l-20 -21 46 -75 c25 -41 48 -76 50 -78 2 -2 21 1 41 7 31 9 40 9 55 -5 19
-17 29 -15 87 22 30 18 41 32 41 50 0 27 6 30 29 16 29 -18 131 50 131 86 0
21 2 22 21 13 17 -10 30 -6 75 21 34 21 54 40 54 52 0 14 5 17 19 12 13 -4 38
6 75 31 49 32 54 39 49 64 -4 23 0 32 26 51 17 12 31 30 30 38 0 28 -94 156
-109 152 -57 -16 -62 -12 -128 120 -62 125 -63 127 -69 230 l-6 105 27 12 c22
10 26 18 26 54 1 66 11 232 15 246 3 8 26 12 68 12 l64 0 7 -46 c3 -26 6 -64
6 -84 0 -45 9 -50 93 -50 72 0 84 6 88 40 3 21 10 25 44 28 38 3 41 1 50 -30
8 -28 15 -34 44 -36 56 -6 78 4 84 38 6 27 10 30 47 30 37 0 41 -3 46 -29 6
-31 25 -41 79 -41 37 0 55 16 55 47 0 21 5 23 45 23 38 0 45 -3 45 -19 0 -29
27 -51 64 -51 38 0 63 17 68 45 2 16 12 21 46 23 39 3 42 1 42 -22 0 -32 29
-48 77 -44 35 3 45 12 57 51 4 12 16 17 44 17 34 0 39 -3 47 -32 l10 -33 70 0
70 0 3 60 c2 33 6 63 10 67 4 4 81 8 172 9 91 1 175 5 188 10 20 8 22 15 22
83 0 41 -4 77 -9 80 -5 4 -91 6 -190 7 l-181 0 0 24 0 25 128 0 c108 0 374 10
379 14 4 3 9 469 5 518 l-4 58 -257 2 -256 3 -3 52 -3 52 148 3 148 3 -2 75
c-1 41 -2 96 -2 123 l-1 47 -144 0 c-141 0 -144 0 -150 23 -3 12 -6 106 -6
210 l0 187 -75 0 -75 0 -28 -63z m-2144 -1394 l-3 -118 -52 -3 c-42 -2 -55 1
-71 18 -38 41 -38 159 0 199 14 16 31 21 74 21 l55 0 -3 -117z"/>
<path d="M180 140 c0 -5 5 -10 11 -10 5 0 7 5 4 10 -3 6 -8 10 -11 10 -2 0 -4
-4 -4 -10z"/>
<path d="M250 125 c-7 -9 -11 -18 -8 -20 3 -3 11 1 18 10 7 9 11 18 8 20 -3 3
-11 -1 -18 -10z"/>
<path d="M340 125 c0 -8 4 -15 10 -15 5 0 7 7 4 15 -4 8 -8 15 -10 15 -2 0 -4
-7 -4 -15z"/>
<path d="M2235 130 c3 -5 8 -10 11 -10 2 0 4 5 4 10 0 6 -5 10 -11 10 -5 0 -7
-4 -4 -10z"/>
<path d="M35 120 c-3 -5 -1 -10 4 -10 6 0 11 5 11 10 0 6 -2 10 -4 10 -3 0 -8
-4 -11 -10z"/>
<path d="M548 119 c-15 -6 -30 -19 -33 -30 -4 -10 -13 -19 -21 -19 -8 0 -14
-5 -14 -11 0 -6 -6 -9 -14 -6 -25 10 -36 -13 -15 -34 15 -15 33 -19 99 -18 45
1 78 5 74 10 -3 5 0 9 5 9 6 0 11 -4 11 -10 0 -5 11 -10 25 -10 14 0 25 5 25
11 0 5 -4 8 -9 5 -5 -3 -14 1 -21 8 -9 12 -7 13 17 7 15 -5 27 -14 25 -21 -2
-8 9 -10 40 -6 46 7 67 20 48 31 -8 5 -8 11 1 21 10 12 8 16 -10 21 -16 4 -21
11 -18 24 6 21 -1 23 -21 10 -10 -6 -10 -10 3 -21 22 -18 19 -27 -14 -38 -32
-11 -46 3 -35 33 4 8 1 15 -5 15 -6 0 -11 -7 -11 -15 0 -14 -12 -20 -34 -16
-4 1 -17 -8 -27 -20 -10 -12 -19 -16 -19 -9 0 7 -7 10 -15 6 -10 -3 -17 3 -21
19 -3 14 -10 22 -15 19 -5 -3 -7 -9 -4 -13 2 -5 -1 -16 -8 -25 -11 -15 -14
-15 -32 -2 -18 14 -18 15 -2 16 10 0 22 12 27 26 7 16 16 24 24 21 8 -3 17 1
20 9 3 8 4 14 3 13 -1 0 -14 -5 -29 -10z m212 -77 c0 -13 -12 -22 -22 -16 -10
6 -1 24 13 24 5 0 9 -4 9 -8z m-245 -22 c3 -5 1 -10 -4 -10 -6 0 -11 5 -11 10
0 6 2 10 4 10 3 0 8 -4 11 -10z"/>
<path d="M940 120 c-13 -8 -12 -10 3 -10 9 0 17 5 17 10 0 12 -1 12 -20 0z"/>
<path d="M1025 103 l-7 -28 -14 25 c-8 14 -14 18 -13 10 1 -8 1 -26 0 -40 -1
-20 -3 -22 -11 -10 -7 11 -10 11 -10 2 0 -7 -4 -11 -9 -8 -5 3 -7 16 -3 29 5
19 3 20 -10 10 -8 -7 -17 -10 -20 -8 -10 10 -49 14 -43 4 4 -5 12 -9 20 -9 8
0 17 -5 21 -11 4 -8 0 -9 -15 -4 -15 5 -23 1 -28 -12 -9 -22 -33 -48 -33 -34
0 5 4 12 9 15 8 6 7 54 -3 63 -8 8 -26 -7 -26 -23 0 -8 -6 -14 -13 -14 -8 0
-14 -11 -14 -29 l0 -28 89 0 c67 -1 88 2 88 13 0 7 5 16 12 20 7 5 9 1 6 -13
-5 -21 -2 -21 175 -22 127 0 185 3 196 12 12 9 13 9 7 0 -5 -9 11 -12 64 -12
57 1 70 4 66 15 -3 8 -1 14 4 14 6 0 10 8 10 18 0 14 2 15 10 2 13 -20 13 -33
0 -25 -5 3 -10 -1 -10 -9 0 -12 10 -16 38 -16 26 0 33 3 22 9 -8 6 -18 7 -24
4 -5 -3 -6 -1 -2 5 10 17 32 15 50 -3 12 -13 40 -15 146 -14 74 1 130 6 130
12 0 5 6 4 13 -2 21 -17 206 -11 200 6 -3 7 -1 13 5 13 5 0 13 -7 16 -16 8
-20 103 -16 98 4 -1 8 3 12 10 9 7 -2 12 -10 11 -16 -2 -7 14 -11 42 -11 25 0
45 5 45 10 0 6 9 10 19 10 11 0 23 -5 26 -10 3 -6 24 -10 45 -10 34 0 41 4 46
26 4 16 12 23 20 20 8 -3 14 -1 14 3 0 5 3 17 6 26 5 13 1 15 -22 11 -16 -2
-33 -5 -39 -5 -5 -1 -4 -5 3 -10 9 -5 11 -17 6 -35 -7 -28 -25 -31 -32 -5 -3
11 -2 11 7 -1 9 -13 11 -13 11 3 0 11 -8 17 -21 17 -12 0 -23 8 -26 20 -6 21
-23 28 -23 9 0 -5 -5 -7 -12 -3 -7 4 -8 3 -4 -4 4 -7 1 -12 -8 -12 -9 0 -16 8
-16 18 -1 16 -1 16 -14 0 -7 -10 -18 -18 -25 -18 -6 0 -11 -5 -11 -11 0 -7 10
-9 25 -6 17 3 24 0 22 -7 -2 -6 -13 -10 -23 -9 -10 1 -23 -4 -27 -10 -6 -8 -7
-6 -4 5 4 9 -1 19 -10 22 -14 6 -13 10 7 31 13 14 18 25 11 25 -18 0 -82 -66
-73 -76 4 -5 3 -5 -3 -1 -15 13 -12 31 5 38 11 5 9 10 -12 19 -16 7 -28 17
-28 22 0 5 -4 7 -10 3 -5 -3 -7 -12 -4 -20 4 -8 10 -12 15 -9 5 3 9 0 9 -5 0
-6 -12 -11 -26 -11 -14 0 -23 -3 -21 -7 3 -5 -11 -8 -31 -7 -21 0 -43 -4 -50
-9 -9 -7 -12 -4 -10 13 2 15 -3 24 -14 25 -10 2 -18 -1 -18 -6 0 -5 5 -9 11
-9 5 0 7 -5 4 -10 -9 -15 -35 7 -35 28 0 12 -4 10 -16 -6 -14 -20 -22 -22 -56
-17 -29 5 -43 3 -49 -6 -7 -11 -11 -11 -21 -1 -10 10 -10 14 1 21 16 10 5 34
-12 28 -7 -2 -12 -10 -12 -18 0 -9 -12 -15 -35 -16 -19 -1 -48 -4 -65 -7 -18
-4 -25 -3 -17 3 11 7 11 9 -1 14 -9 3 -18 -1 -21 -9 -3 -9 -10 -13 -15 -9 -6
3 -7 13 -4 22 6 15 5 16 -9 3 -9 -9 -12 -18 -6 -21 5 -3 0 -9 -11 -12 -19 -5
-26 3 -22 26 0 4 -10 7 -24 7 -14 0 -25 -4 -25 -10 0 -5 5 -10 12 -10 6 0 9
-2 6 -5 -8 -9 -38 6 -33 16 3 4 -8 7 -25 6 -29 -2 -34 -8 -31 -34 1 -7 -4 -13
-12 -13 -18 0 -18 32 1 46 20 15 1 27 -30 19 -20 -5 -23 -12 -21 -43 1 -20 0
-30 -3 -21 -3 10 -13 20 -22 23 -9 3 -23 9 -30 12 -8 4 -10 0 -6 -10 3 -9 1
-16 -5 -16 -6 0 -11 6 -11 14 0 12 -20 26 -36 26 -3 0 4 -13 16 -29 14 -21 17
-32 9 -37 -8 -4 -9 -3 -5 4 4 7 2 12 -3 12 -6 0 -11 7 -11 15 0 12 -4 13 -18
6 -20 -10 -42 3 -42 23 0 6 7 3 14 -7 14 -18 15 -17 21 3 4 12 4 24 1 27 -3 4
-6 -2 -6 -13 0 -15 -2 -16 -9 -5 -8 13 -12 13 -27 0 -16 -13 -16 -12 -5 9 7
14 8 22 1 22 -5 0 -10 -4 -10 -10 0 -5 -7 -10 -15 -10 -9 0 -15 -6 -14 -12 3
-26 -1 -39 -11 -33 -5 3 -10 15 -10 26 0 10 -5 19 -11 19 -8 0 -7 6 2 18 12
15 12 16 -2 5 -8 -7 -26 -10 -40 -7 -24 5 -24 5 -4 -12 17 -14 17 -16 3 -11
-12 4 -18 1 -18 -8 0 -9 -9 -15 -21 -15 -15 0 -19 5 -15 15 3 8 1 15 -4 15 -6
0 -10 -4 -10 -10 0 -5 -7 -7 -15 -4 -9 4 -16 -3 -21 -20 -3 -14 -10 -26 -15
-26 -13 0 -11 7 8 37 18 27 25 63 12 63 -4 0 -10 -12 -14 -27z m155 -33 c0 -5
-2 -10 -4 -10 -3 0 -8 5 -11 10 -3 6 -1 10 4 10 6 0 11 -4 11 -10z m-15 -29
c-6 -5 -25 10 -25 20 0 5 6 4 14 -3 8 -7 12 -15 11 -17z m-95 9 c0 -5 -2 -10
-4 -10 -3 0 -8 5 -11 10 -3 6 -1 10 4 10 6 0 11 -4 11 -10z m200 -22 c0 -17
-28 -7 -33 11 -4 17 -2 18 14 8 10 -6 19 -15 19 -19z m1130 3 c0 -16 -13 -20
-26 -6 -22 21 -18 38 6 25 11 -6 20 -14 20 -19z m-1447 -1 c3 -12 -2 -16 -16
-15 -11 1 -21 9 -23 18 -3 21 33 18 39 -3z m804 -17 c-3 -3 -10 -2 -16 2 -7 4
-7 10 2 20 10 11 13 11 15 -2 2 -8 1 -17 -1 -20z m51 22 c9 1 11 0 5 -2 -7 -3
-13 -9 -13 -14 0 -6 -4 -7 -10 -4 -5 3 -10 14 -9 23 0 9 3 12 5 6 3 -7 13 -11
22 -9z m92 11 c0 -3 -4 -8 -10 -11 -5 -3 -10 -1 -10 4 0 6 5 11 10 11 6 0 10
-2 10 -4z m-831 -15 c9 -6 10 -11 2 -15 -13 -8 -31 1 -31 15 0 11 11 11 29 0z
m591 -6 c0 -8 -4 -15 -10 -15 -5 0 -10 7 -10 15 0 8 5 15 10 15 6 0 10 -7 10
-15z m50 -1 c0 -8 -4 -12 -10 -9 -5 3 -10 10 -10 16 0 5 5 9 10 9 6 0 10 -7
10 -16z m262 -6 c-7 -7 -12 -8 -12 -2 0 14 12 26 19 19 2 -3 -1 -11 -7 -17z
m196 -3 c-3 -3 -9 2 -12 12 -6 14 -5 15 5 6 7 -7 10 -15 7 -18z m-968 5 c0 -5
-7 -7 -15 -4 -8 4 -15 8 -15 10 0 2 7 4 15 4 8 0 15 -4 15 -10z m745 0 c-3 -5
-12 -10 -18 -10 -7 0 -6 4 3 10 19 12 23 12 15 0z"/>
<path d="M1694 114 c3 -9 6 -18 6 -21 0 -3 7 0 15 7 13 11 13 15 3 21 -21 13
-31 10 -24 -7z"/>
<path d="M108 113 c7 -3 16 -2 19 1 4 3 -2 6 -13 5 -11 0 -14 -3 -6 -6z"/>
<path d="M285 110 c-3 -5 -1 -10 4 -10 19 0 12 -22 -9 -27 -25 -7 -27 -25 -2
-22 33 3 53 -1 47 -10 -3 -6 -13 -9 -23 -9 -9 0 -24 -2 -33 -6 -13 -6 -19 1
-26 30 -8 34 -10 36 -24 21 -9 -9 -20 -13 -24 -9 -4 4 -5 -2 -3 -12 1 -10 -3
-21 -10 -23 -9 -4 -11 2 -7 19 5 21 2 23 -30 24 -35 0 -47 -10 -22 -19 6 -3 2
-6 -10 -6 -16 -1 -23 5 -23 18 0 11 -5 23 -11 27 -14 8 -8 -37 8 -54 6 -6 22
-12 34 -12 30 0 16 -13 -15 -15 -14 0 -24 4 -23 9 1 6 -8 12 -21 14 -12 2 -22
8 -22 13 0 6 4 7 10 4 22 -13 8 11 -16 29 -26 18 -26 18 -14 -3 6 -12 9 -27 6
-34 -2 -7 -5 -4 -5 6 -2 29 -21 19 -21 -12 0 -17 6 -31 16 -35 22 -8 314 -5
314 3 0 14 53 71 66 71 8 0 14 4 14 8 0 7 -17 7 -65 3 -5 -1 -4 -5 4 -10 10
-6 10 -10 1 -16 -6 -4 -12 -5 -14 -4 -29 42 -46 58 -51 49z m-55 -75 c0 -16
-6 -25 -16 -25 -10 0 -12 4 -7 13 4 6 8 15 9 20 3 15 4 17 9 17 3 0 5 -11 5
-25z"/>
<path d="M805 110 c4 -6 11 -8 16 -5 14 9 11 15 -7 15 -8 0 -12 -5 -9 -10z"/>
<path d="M1205 110 c3 -5 8 -10 11 -10 2 0 4 5 4 10 0 6 -5 10 -11 10 -5 0 -7
-4 -4 -10z"/>
<path d="M1327 106 c-3 -8 1 -17 9 -20 22 -9 23 -8 17 14 -6 23 -19 26 -26 6z"/>
<path d="M1623 105 c-3 -9 -3 -18 -1 -21 3 -3 8 4 11 16 6 23 -1 27 -10 5z"/>
<path d="M2040 110 c0 -13 11 -13 30 0 12 8 11 10 -7 10 -13 0 -23 -4 -23 -10z"/>
<path d="M2405 110 c-17 -8 -17 -9 7 -7 15 1 24 5 22 9 -3 4 -6 8 -7 7 -1 0
-11 -4 -22 -9z"/>
<path d="M463 93 c-15 -10 -23 -11 -23 -4 0 8 -4 9 -12 2 -7 -6 -28 -22 -45
-37 -48 -38 -43 -54 17 -54 28 0 50 4 50 8 0 4 -15 16 -32 27 l-33 19 40 8
c49 10 86 28 79 40 -7 11 -15 10 -41 -9z"/>
<path d="M1500 100 c0 -5 4 -10 9 -10 6 0 13 5 16 10 3 6 -1 10 -9 10 -9 0
-16 -4 -16 -10z"/>
<path d="M1585 100 c3 -5 11 -10 16 -10 6 0 7 5 4 10 -3 6 -11 10 -16 10 -6 0
-7 -4 -4 -10z"/>
<path d="M2015 100 c3 -5 8 -10 11 -10 2 0 4 5 4 10 0 6 -5 10 -11 10 -5 0 -7
-4 -4 -10z"/>
<path d="M2091 101 c-23 -15 -21 -37 3 -38 11 -1 15 1 9 4 -9 3 -10 10 -3 24
12 21 11 22 -9 10z"/>
<path d="M2210 100 c0 -5 5 -10 11 -10 5 0 7 5 4 10 -3 6 -8 10 -11 10 -2 0
-4 -4 -4 -10z"/>
<path d="M1737 93 c-13 -12 -7 -26 6 -15 7 6 24 9 38 6 21 -4 22 -3 4 5 -25
12 -40 13 -48 4z"/>
<path d="M1866 91 c-4 -7 -5 -15 -2 -18 9 -9 19 4 14 18 -4 11 -6 11 -12 0z"/>
<path d="M2950 90 c-9 -6 -10 -10 -3 -10 6 0 15 5 18 10 8 12 4 12 -15 0z"/>
<path d="M590 85 c0 -5 5 -17 10 -25 5 -8 10 -10 10 -5 0 6 -5 17 -10 25 -5 8
-10 11 -10 5z"/>
<path d="M1390 76 c0 -9 5 -16 10 -16 6 0 10 4 10 9 0 6 -4 13 -10 16 -5 3
-10 -1 -10 -9z"/>
<path d="M1890 80 c0 -12 8 -12 35 0 18 8 17 9 -7 9 -16 1 -28 -3 -28 -9z"/>
<path d="M2396 81 c-3 -5 1 -11 9 -15 8 -3 15 -1 15 4 0 13 -18 22 -24 11z"/>
<path d="M2580 81 c0 -6 -9 -11 -19 -11 -17 0 -18 -3 -8 -30 14 -36 22 -32 26
14 1 9 8 12 24 9 23 -6 23 -6 -5 16 -12 9 -18 10 -18 2z"/>
<path d="M2633 72 c0 -12 5 -22 9 -22 11 0 10 12 -2 30 -7 12 -9 10 -7 -8z"/>
<path d="M2860 84 c0 -17 17 -36 24 -26 3 5 -1 15 -9 22 -8 7 -15 9 -15 4z"/>
<path d="M3400 79 c0 -5 5 -7 10 -4 6 3 10 8 10 11 0 2 -4 4 -10 4 -5 0 -10
-5 -10 -11z"/>
<path d="M4010 78 c0 -4 4 -8 9 -8 6 0 12 4 15 8 3 5 -1 9 -9 9 -8 0 -15 -4
-15 -9z"/>
<path d="M4380 86 c0 -2 7 -7 16 -10 8 -3 12 -2 9 4 -6 10 -25 14 -25 6z"/>
<path d="M4793 71 c-15 -23 3 -71 27 -71 12 0 13 2 1 9 -7 5 -10 14 -7 20 4 6
2 11 -3 11 -18 0 -13 28 7 39 13 8 14 10 2 11 -8 0 -21 -9 -27 -19z"/>
<path d="M5040 80 c0 -5 5 -10 10 -10 6 0 10 5 10 10 0 6 -4 10 -10 10 -5 0
-10 -4 -10 -10z"/>
<path d="M2523 49 c2 -33 1 -35 -15 -25 -14 8 -21 7 -33 -5 -14 -14 -11 -15
30 -18 25 -1 45 -1 45 1 0 2 -7 21 -15 43 l-16 40 4 -36z"/>
<path d="M2670 71 c0 -5 6 -12 13 -14 7 -3 5 -6 -5 -6 -10 -1 -18 -5 -18 -11
0 -6 3 -9 8 -9 18 3 32 -2 32 -11 0 -5 -13 -8 -30 -7 -16 1 -30 8 -30 15 0 6
-5 12 -11 12 -5 0 -7 -4 -4 -10 3 -6 2 -10 -4 -10 -5 0 -15 8 -20 18 -6 9 -11
12 -11 5 0 -6 -3 -18 -6 -27 -5 -13 11 -15 133 -15 152 0 173 3 173 25 0 10
-5 12 -12 7 -7 -4 -20 -6 -30 -5 -9 2 -19 -2 -23 -8 -9 -14 -26 -13 -24 2 4
32 -2 48 -18 47 -11 0 -13 -3 -5 -6 18 -7 15 -53 -3 -53 -18 0 -20 16 -2 24 6
4 1 4 -11 2 -30 -6 -52 2 -52 19 0 7 -7 16 -16 19 -21 8 -24 8 -24 -3z"/>
<path d="M3065 70 c-3 -5 -1 -10 4 -10 6 0 11 5 11 10 0 6 -2 10 -4 10 -3 0
-8 -4 -11 -10z"/>
<path d="M3568 73 c7 -3 16 -2 19 1 4 3 -2 6 -13 5 -11 0 -14 -3 -6 -6z"/>
<path d="M2825 60 c-3 -5 -2 -10 4 -10 5 0 13 5 16 10 3 6 2 10 -4 10 -5 0
-13 -4 -16 -10z"/>
<path d="M3241 54 c0 -11 3 -14 6 -6 3 7 2 16 -1 19 -3 4 -6 -2 -5 -13z"/>
<path d="M4360 55 c-7 -9 -11 -17 -9 -20 3 -2 10 5 17 15 14 24 10 26 -8 5z"/>
<path d="M4568 64 c10 -5 10 -11 -2 -29 -15 -23 -15 -24 6 -20 12 3 25 0 28
-5 3 -5 11 -5 20 0 13 8 13 11 1 22 -11 11 -13 11 -6 -1 5 -9 3 -12 -6 -9 -8
3 -14 13 -14 24 0 11 -8 20 -20 21 -11 2 -14 0 -7 -3z"/>
<path d="M3190 53 c-8 -3 -18 -10 -21 -15 -3 -5 -17 -4 -32 1 -19 7 -27 7 -27
0 0 -6 -4 -8 -9 -5 -5 3 -11 -3 -14 -14 -3 -13 0 -20 9 -20 8 0 14 7 14 15 0
20 10 19 25 -1 10 -14 14 -15 34 -3 18 12 23 12 31 -1 5 -8 12 -11 16 -7 4 3
2 13 -4 20 -9 10 -8 17 0 25 13 13 3 14 -22 5z"/>
<path d="M3320 50 c0 -21 16 -44 23 -33 4 6 0 19 -8 29 -11 15 -14 16 -15 4z"/>
<path d="M3376 47 c3 -10 9 -15 12 -12 3 3 0 11 -7 18 -10 9 -11 8 -5 -6z"/>
<path d="M3433 35 c-10 -23 -9 -25 10 -25 16 0 22 7 23 25 2 32 -18 32 -33 0z"/>
<path d="M3561 39 c-1 -27 14 -39 47 -39 12 0 9 6 -10 17 -15 10 -29 24 -32
33 -2 8 -4 3 -5 -11z"/>
<path d="M3590 50 c0 -5 5 -10 11 -10 5 0 7 5 4 10 -3 6 -8 10 -11 10 -2 0 -4
-4 -4 -10z"/>
<path d="M3740 56 c0 -4 7 -14 15 -22 8 -9 15 -11 15 -6 0 5 -7 15 -15 22 -8
7 -15 9 -15 6z"/>
<path d="M3820 51 c0 -11 36 -46 47 -46 3 0 7 10 8 23 2 23 -10 31 -17 11 -3
-8 -10 -6 -21 5 -9 10 -17 13 -17 7z"/>
<path d="M3997 39 c3 -10 1 -19 -3 -20 -24 -2 -47 -8 -52 -15 -4 -4 9 -4 28 0
44 8 66 38 36 49 -10 4 -12 0 -9 -14z"/>
<path d="M4286 44 c-5 -14 -4 -15 9 -4 17 14 19 20 6 20 -5 0 -12 -7 -15 -16z"/>
<path d="M4420 50 c0 -5 5 -10 10 -10 6 0 10 5 10 10 0 6 -4 10 -10 10 -5 0
-10 -4 -10 -10z"/>
<path d="M4510 51 c0 -6 5 -13 10 -16 6 -3 10 1 10 9 0 9 -4 16 -10 16 -5 0
-10 -4 -10 -9z"/>
<path d="M4729 56 c-2 -2 -18 -6 -36 -9 -42 -7 -53 -14 -52 -35 1 -14 2 -14 6
1 3 13 11 17 24 14 10 -3 22 -1 25 4 3 5 14 9 25 9 10 0 19 5 19 10 0 11 -4
13 -11 6z"/>
<path d="M4840 50 c0 -5 4 -10 9 -10 6 0 13 5 16 10 3 6 -1 10 -9 10 -9 0 -16
-4 -16 -10z"/>
<path d="M4882 40 c0 -14 2 -19 5 -12 2 6 2 18 0 25 -3 6 -5 1 -5 -13z"/>
<path d="M2943 35 c0 -8 4 -12 9 -9 4 3 8 0 8 -5 0 -6 -7 -11 -15 -11 -8 0
-15 8 -15 17 0 12 -3 14 -11 6 -6 -6 -8 -16 -5 -22 9 -14 96 -11 96 3 0 6 5 5
12 -2 7 -7 21 -12 33 -12 20 1 20 1 0 15 -11 8 -26 19 -32 25 -10 8 -13 7 -13
-5 0 -19 -4 -19 -39 -1 -23 13 -28 13 -28 1z"/>
<path d="M3045 40 c3 -5 8 -10 11 -10 2 0 4 5 4 10 0 6 -5 10 -11 10 -5 0 -7
-4 -4 -10z"/>
<path d="M3516 35 c-3 -8 -1 -15 5 -15 6 0 7 -6 3 -13 -4 -6 -3 -9 1 -4 12 11
17 47 6 47 -5 0 -11 -7 -15 -15z"/>
<path d="M3690 36 c0 -9 5 -16 10 -16 6 0 10 4 10 9 0 6 -4 13 -10 16 -5 3
-10 -1 -10 -9z"/>
<path d="M4060 39 c0 -5 5 -7 10 -4 6 3 10 8 10 11 0 2 -4 4 -10 4 -5 0 -10
-5 -10 -11z"/>
<path d="M4100 40 c0 -5 5 -10 10 -10 6 0 10 5 10 10 0 6 -4 10 -10 10 -5 0
-10 -4 -10 -10z"/>
<path d="M4150 43 c1 -17 29 -45 43 -41 9 2 5 10 -15 26 -15 13 -28 20 -28 15z"/>
<path d="M5080 36 c0 -9 5 -16 10 -16 6 0 10 4 10 9 0 6 -4 13 -10 16 -5 3
-10 -1 -10 -9z"/>
<path d="M3273 19 c1 -10 6 -18 11 -16 16 5 18 24 2 30 -10 4 -14 0 -13 -14z"/>
<path d="M3910 28 c0 -9 -6 -19 -12 -21 -10 -4 -10 -6 0 -6 14 -1 28 26 18 36
-3 4 -6 -1 -6 -9z"/>
<path d="M4328 34 c-22 -21 -5 -31 52 -30 43 1 53 3 37 9 -12 5 -34 6 -49 3
-19 -4 -28 -1 -30 10 -2 9 -6 12 -10 8z"/>
<path d="M4460 26 c0 -8 6 -16 14 -19 10 -4 12 0 9 14 -6 22 -23 26 -23 5z"/>
<path d="M4026 22 c-3 -6 3 -12 15 -15 12 -3 19 -1 16 6 -5 15 -24 20 -31 9z"/>
<path d="M4230 15 c-10 -13 -9 -15 8 -15 15 0 20 5 16 15 -8 19 -9 19 -24 0z"/>
<path d="M4752 15 c-11 -12 -10 -15 3 -15 8 0 15 7 15 15 0 18 -2 18 -18 0z"/>
<path d="M5047 23 c-16 -15 -5 -23 31 -22 23 1 28 3 15 6 -13 2 -23 9 -23 14
0 10 -14 12 -23 2z"/>
<path d="M3670 10 c0 -5 10 -10 23 -10 18 0 19 2 7 10 -19 13 -30 13 -30 0z"/>
<path d="M3785 10 c-3 -5 -1 -10 4 -10 6 0 11 5 11 10 0 6 -2 10 -4 10 -3 0
-8 -4 -11 -10z"/>
<path d="M3810 10 c0 -6 7 -10 15 -10 8 0 15 2 15 4 0 2 -7 6 -15 10 -8 3 -15
1 -15 -4z"/>
<path d="M4086 12 c-3 -4 4 -9 15 -9 23 -2 25 3 4 10 -8 4 -16 3 -19 -1z"/>
<path d="M4500 9 c0 -5 9 -9 20 -9 11 0 20 2 20 4 0 2 -9 6 -20 9 -11 3 -20 1
-20 -4z"/>
<path d="M4700 10 c-13 -8 -12 -10 3 -10 9 0 17 5 17 10 0 12 -1 12 -20 0z"/>
<path d="M4850 10 c0 -5 5 -10 10 -10 6 0 10 5 10 10 0 6 -4 10 -10 10 -5 0
-10 -4 -10 -10z"/>
<path d="M4940 10 c-12 -8 -9 -10 13 -10 15 0 27 5 27 10 0 13 -20 13 -40 0z"/>
<path d="M3373 3 c9 -2 23 -2 30 0 6 3 -1 5 -18 5 -16 0 -22 -2 -12 -5z"/>
</g>
</svg>
